<?xml version="1.0" encoding="utf-8"?>
<!-- Generator: Adobe Illustrator 19.0.1, SVG Export Plug-In . SVG Version: 6.00 Build 0)  -->
<svg version="1.1" id="real_x5F_estate_1_" xmlns="http://www.w3.org/2000/svg" xmlns:xlink="http://www.w3.org/1999/xlink" x="0px"
	 y="0px" viewBox="0 0 128 128" style="enable-background:new 0 0 128 128;" xml:space="preserve">
<style type="text/css">
	.st0{display:none;}
	.st1{display:inline;}
	.st2{fill:#0F0F0F;}
	.st3{display:inline;fill-rule:evenodd;clip-rule:evenodd;fill:#0F0F0F;}
</style>
<g id="sold_1_" class="st0">
	<g id="icon" class="st1">
		<g>
			<path class="st2" d="M23.3,86.1h9.3v-9.3h-9.3V86.1z M34.9,88.4h-2.3v0h-9.3v16.3h20.9V88.4L34.9,88.4L34.9,88.4z M55.9,23.3
				L0,51.2h104.7L55.9,23.3z M55.9,44.2c-2.6,0-4.7-2.1-4.7-4.7s2.1-4.7,4.7-4.7c2.6,0,4.7,2.1,4.7,4.7S58.4,44.2,55.9,44.2z
				 M88.4,27.9H76.8v6.5l11.6,5.1V27.9z M62.8,81.5c0-10.3,6.4-18.6,16.3-18.6h14v-9.3H11.6v51.2h9.3V62.8h25.6v41.9h46.6v-4.7
				c-7.8,0-14,0-14,0C69.2,100.1,62.8,91.7,62.8,81.5z M32.6,65.1h-9.3v9.3h9.3V65.1z M34.9,74.5h9.3v-9.3h-9.3V74.5z M34.9,86.1
				h9.3v-9.3h-9.3V86.1z M99.1,76.8h26.6c1.3,0,2.3-1,2.3-2.3c0-1.3-1-2.3-2.3-2.3H97.2C98,73.6,98.6,75.1,99.1,76.8z M125.7,86.1
				H99.1c-0.4,1.7-1.1,3.2-1.9,4.7h28.5c1.3,0,2.3-1,2.3-2.3C128,87.2,127,86.1,125.7,86.1z M81.5,65.2c-9,0-16.3,7.3-16.3,16.3
				c0,9,7.3,16.3,16.3,16.3c9,0,16.3-7.3,16.3-16.3C97.7,72.5,90.5,65.2,81.5,65.2z M87,87.8c-0.4,0.7-0.9,1.4-1.5,1.9
				c-0.6,0.5-1.4,0.9-2.2,1.1c-0.1,0-0.2,0-0.3,0.1v2.5h-2.3v-2.2c0,0-0.1,0-0.1,0c-0.7,0-1.3-0.1-1.8-0.2c-0.6-0.1-1-0.2-1.5-0.4
				c-0.4-0.2-0.8-0.3-1.1-0.5c-0.3-0.2-0.5-0.3-0.6-0.4c-0.1-0.1-0.2-0.3-0.3-0.5c-0.1-0.2-0.1-0.6-0.1-1c0-0.3,0-0.6,0-0.8
				c0-0.2,0-0.4,0.1-0.5c0-0.1,0.1-0.2,0.2-0.3c0.1-0.1,0.2-0.1,0.3-0.1c0.1,0,0.3,0.1,0.6,0.2c0.2,0.2,0.6,0.3,1,0.5
				c0.4,0.2,0.8,0.4,1.4,0.5c0.5,0.2,1.2,0.2,1.9,0.2c0.5,0,0.9-0.1,1.2-0.2c0.4-0.1,0.7-0.3,0.9-0.5c0.3-0.2,0.5-0.5,0.6-0.8
				c0.1-0.3,0.2-0.6,0.2-1c0-0.4-0.1-0.8-0.4-1.1c-0.2-0.3-0.5-0.6-0.9-0.8c-0.4-0.2-0.8-0.5-1.3-0.7c-0.5-0.2-1-0.4-1.5-0.7
				c-0.5-0.2-1-0.5-1.5-0.8c-0.5-0.3-0.9-0.6-1.3-1.1c-0.4-0.4-0.7-0.9-0.9-1.5c-0.2-0.6-0.3-1.2-0.3-2c0-0.9,0.2-1.7,0.5-2.4
				c0.3-0.7,0.8-1.2,1.4-1.7c0.6-0.4,1.2-0.8,2-1c0.4-0.1,0.8-0.2,1.2-0.3v-2.4H83v2.4c0.1,0,0.2,0,0.3,0c0.4,0.1,0.9,0.2,1.3,0.3
				c0.4,0.1,0.7,0.2,1,0.4s0.5,0.3,0.6,0.4c0.1,0.1,0.2,0.2,0.2,0.2c0,0.1,0.1,0.2,0.1,0.3c0,0.1,0,0.3,0,0.4c0,0.2,0,0.4,0,0.6
				c0,0.3,0,0.5,0,0.7c0,0.2,0,0.4-0.1,0.5c0,0.1-0.1,0.2-0.1,0.3c-0.1,0.1-0.1,0.1-0.3,0.1s-0.3-0.1-0.5-0.2
				c-0.2-0.1-0.5-0.3-0.9-0.4c-0.3-0.2-0.7-0.3-1.2-0.4c-0.4-0.1-0.9-0.2-1.5-0.2c-0.4,0-0.8,0.1-1.1,0.2c-0.3,0.1-0.6,0.2-0.8,0.4
				c-0.2,0.2-0.4,0.4-0.5,0.6c-0.1,0.2-0.2,0.5-0.2,0.8c0,0.4,0.1,0.8,0.3,1.1c0.2,0.3,0.5,0.6,0.9,0.8c0.4,0.2,0.8,0.5,1.3,0.7
				c0.5,0.2,1,0.4,1.5,0.7c0.5,0.2,1,0.5,1.5,0.8c0.5,0.3,0.9,0.6,1.3,1.1c0.4,0.4,0.7,0.9,0.9,1.5c0.2,0.6,0.4,1.2,0.4,2
				C87.6,86.2,87.4,87.1,87,87.8z M125.7,93.1H95.6c-1.5,1.9-3.4,3.5-5.5,4.7h35.6c1.3,0,2.3-1,2.3-2.3
				C128,94.1,127,93.1,125.7,93.1z M125.7,79.1H99.5c0.1,0.8,0.2,1.5,0.2,2.3c0,0.8-0.1,1.6-0.2,2.3h26.1c1.3,0,2.3-1,2.3-2.3
				C128,80.2,127,79.1,125.7,79.1z"/>
		</g>
	</g>
</g>
<g id="Map_1_" class="st0">
	<g id="icon_1_" class="st1">
		<g>
			<path class="st2" d="M5.3,29.3H40v16h5.3v-16h5.3V24H0v10.7h5.3V29.3z M72,24v5.3h50.7v13.3h-40V48h8v13.3h-8v5.3h40v32H112v5.3
				h16V24H72z M96,61.3h-2.7V48H96V61.3z M101.3,61.3h-2.7V48h2.7V61.3z M106.7,61.3H104V48h2.7V61.3z M112,61.3h-2.7V48h2.7V61.3z
				 M117.3,61.3h-2.7V48h2.7V61.3z M122.7,61.3H120V48h2.7V61.3z M5.3,69.3h40v-8H40V64H5.3v-8H0v48h24v-5.3H5.3V69.3z M66.7,74.7
				h-5.3v24h-24v5.3h53.3v-5.3h-24V74.7z"/>
		</g>
	</g>
</g>
<g id="open_1_" class="st0">
	<g id="icon_2_" class="st1">
		<path class="st2" d="M32.5,73.2c-2.5,0-2.8,2.4-2.8,9.6c0,7.3,0.4,9.6,2.8,9.6c2.5,0,2.9-2.3,2.9-9.6C35.4,75.5,35,73.2,32.5,73.2
			z M32.5,73.2c-2.5,0-2.8,2.4-2.8,9.6c0,7.3,0.4,9.6,2.8,9.6c2.5,0,2.9-2.3,2.9-9.6C35.4,75.5,35,73.2,32.5,73.2z M32.5,73.2
			c-2.5,0-2.8,2.4-2.8,9.6c0,7.3,0.4,9.6,2.8,9.6c2.5,0,2.9-2.3,2.9-9.6C35.4,75.5,35,73.2,32.5,73.2z M51.8,74.1h-1.6v6.9H52
			c2.5,0,3.1-1.6,3.1-3.3C55,75.7,54.4,74.1,51.8,74.1z M51.8,74.1h-1.6v6.9H52c2.5,0,3.1-1.6,3.1-3.3C55,75.7,54.4,74.1,51.8,74.1z
			 M32.5,73.2c-2.5,0-2.8,2.4-2.8,9.6c0,7.3,0.4,9.6,2.8,9.6c2.5,0,2.9-2.3,2.9-9.6C35.4,75.5,35,73.2,32.5,73.2z M117.9,48.8H10.1
			C4,48.8,0,52.8,0,58.9v47.2c0,6.2,4,10.1,10.1,10.1h107.8c6.1,0,10.1-3.9,10.1-10.1V58.9C128,52.8,124,48.8,117.9,48.8z
			 M32.5,96.5c-8.2,0-9.3-5.3-9.3-13.7c0-8.4,1.1-13.7,9.3-13.7c8.8,0,9.3,6.4,9.3,13.7S41.4,96.5,32.5,96.5z M53,85.7h-2.7V96H44
			V69.5h9.6c6.6,0,7.8,4.7,7.8,8.1C61.5,82.3,59.2,85.7,53,85.7z M80,96H64.2V69.5h15.3v5.1h-9.1v5.3H79v5.1h-8.5v6H80V96z
			 M102.6,96h-7l-5.5-18.2H90V96h-5.6V69.5h7.2l5.1,17.2h0.1V69.5h5.8V96z M51.8,74.1h-1.6v6.9H52c2.5,0,3.1-1.6,3.1-3.3
			C55,75.7,54.4,74.1,51.8,74.1z M32.5,73.2c-2.5,0-2.8,2.4-2.8,9.6c0,7.3,0.4,9.6,2.8,9.6c2.5,0,2.9-2.3,2.9-9.6
			C35.4,75.5,35,73.2,32.5,73.2z M32.5,73.2c-2.5,0-2.8,2.4-2.8,9.6c0,7.3,0.4,9.6,2.8,9.6c2.5,0,2.9-2.3,2.9-9.6
			C35.4,75.5,35,73.2,32.5,73.2z M51.8,74.1h-1.6v6.9H52c2.5,0,3.1-1.6,3.1-3.3C55,75.7,54.4,74.1,51.8,74.1z M51.8,74.1h-1.6v6.9
			H52c2.5,0,3.1-1.6,3.1-3.3C55,75.7,54.4,74.1,51.8,74.1z M32.5,73.2c-2.5,0-2.8,2.4-2.8,9.6c0,7.3,0.4,9.6,2.8,9.6
			c2.5,0,2.9-2.3,2.9-9.6C35.4,75.5,35,73.2,32.5,73.2z M73.8,24.2c0.2-0.7,0.3-1.5,0.3-2.3c0-5.6-4.5-10.1-10.1-10.1
			s-10.1,4.5-10.1,10.1c0,0.8,0.1,1.5,0.3,2.3L16.8,45.5h10.1l30-16.4c1.9,1.8,4.3,2.9,7.1,2.9s5.2-1.1,7.1-2.9l30,16.4h10.1
			L73.8,24.2z"/>
	</g>
</g>
<g id="car_x5F_garage_1_" class="st0">
	<g id="icon_3_" class="st1">
		<g>
			<path class="st2" d="M65.7,10.9L0,45.3v12.5l65.7-34.3L128,57.8V45.3L65.7,10.9z M98.3,76.5h1.6l-9.4-25h-50l-9.4,25h1.6
				c-6,0-10.9,4.9-10.9,10.9c0,6,4.9,17.2,10.9,17.2h1.6v6.2c0,3.4,2.8,6.2,6.2,6.2c0,0,6.2-0.7,6.2-6.2v-6.2h37.5v6.2
				c0,5.5,6.2,6.2,6.2,6.2c3.4,0,6.2-2.8,6.2-6.2v-6.2h1.6c6,0,10.9-11.1,10.9-17.2C109.3,81.4,104.4,76.5,98.3,76.5z M35.9,92.1
				c-2.6,0-4.7-2.1-4.7-4.7c0-2.6,2.1-4.7,4.7-4.7c2.6,0,4.7,2.1,4.7,4.7C40.6,90,38.5,92.1,35.9,92.1z M79.6,92.1h-25
				c-0.9,0-1.6-0.7-1.6-1.6c0-0.9,0.7-1.6,1.6-1.6h25c0.9,0,1.6,0.7,1.6,1.6C81.2,91.4,80.5,92.1,79.6,92.1z M79.6,85.9h-25
				c-0.9,0-1.6-0.7-1.6-1.6c0-0.9,0.7-1.6,1.6-1.6h25c0.9,0,1.6,0.7,1.6,1.6C81.2,85.2,80.5,85.9,79.6,85.9z M40.6,76.5l6.2-15.6
				h37.5l6.2,15.6H40.6z M95.2,92.1c-2.6,0-4.7-2.1-4.7-4.7c0-2.6,2.1-4.7,4.7-4.7s4.7,2.1,4.7,4.7C99.9,90,97.8,92.1,95.2,92.1z"/>
		</g>
	</g>
</g>
<g id="hands_1_" class="st0">
	<g id="icon_4_" class="st1">
		<g>
			<path class="st2" d="M40.1,81.7c-1.1-1.2-3-1.2-4.2-0.1l-4.3,4.1c-1.2,1.1-1.2,3-0.1,4.2c1.1,1.2,3,1.2,4.2,0.1l4.3-4.1
				C41.2,84.8,41.2,82.9,40.1,81.7z M48.4,86.2c-1.1-1.2-3-1.2-4.2-0.1l-6.5,6.1c-1.2,1.1-1.2,3-0.1,4.2c1.1,1.2,3,1.2,4.2,0.1
				l6.5-6.1C49.4,89.2,49.5,87.4,48.4,86.2z M60.6,99.1c-1.1-1.2-3-1.2-4.2-0.1l-4.3,4.1c-1.2,1.1-1.2,3-0.1,4.2
				c1.1,1.2,3,1.2,4.2,0.1l4.3-4.1C61.6,102.1,61.7,100.3,60.6,99.1z M31.7,19.9L0,56.9l13.9,11.9l31.7-37L31.7,19.9z M13.6,59.9
				c-2.4,0.2-4.6-1.6-4.8-4.1c-0.2-2.4,1.6-4.6,4.1-4.8c2.4-0.2,4.6,1.6,4.8,4.1C17.9,57.5,16.1,59.7,13.6,59.9z M82.9,75.9
				c-10.1-6.6-23.1-13.7-23.1-13.7S47.5,64.3,39,60.9c-8.6-3.4,1.9-13.7,13.8-13c-2.4-1.9-11.1-7-11.1-7L20.5,65.7l13.7,10.4
				l1.4,4.3c0,0,2.3-1.3,4.9,1.1c2.6,2.3,1.7,4.5,0.8,5.7c1.9-1.9,6-5.3,8.3-3.4c5.1,4.2-4.5,10.7-3.8,11.4c0.9,0.9,6.1-8.7,10.4-3
				c1.5,2-0.8,5.4-2.4,7.3c2-2,5.7-4.9,8.8-1.9c2.5,2.5-2.7,8-2.7,8s4.4,2.6,6.6,0.4c2.7-2.8-9.4-14.5-9.4-14.5h3
				c0,0,10.3,15.7,14.9,11.1c4.1-4.1-12.5-14.5-12.5-14.5l2.7-3.2c0,0,14.5,16.4,18.2,11.1c3-4.2-12.5-14.3-12.5-14.3l2.7-3.2
				c0,0,12.2,12.5,15,8.2C92.8,80,79.4,73.6,82.9,75.9z M67.7,51.5c0,0-20.1-3.8-27,4.2c-6.5,7.5,24.7,3.5,23.4,4.5
				c3.1,3.4,26.6,17.4,26.6,17.4l16.7-11.1L89,39.7L67.7,51.5z M40.3,88.3c0,0,0.5-0.4,1.1-1.1C40.7,87.9,40.3,88.3,40.3,88.3z
				 M101.5,20.3L87.1,30.4l26.5,39.5L128,59.8L101.5,20.3z M114.7,60.9c-2.4,0.2-4.6-1.6-4.8-4.1c-0.2-2.4,1.6-4.6,4.1-4.8
				c2.4-0.2,4.6,1.6,4.8,4.1C119,58.6,117.1,60.7,114.7,60.9z M53.8,99.5c-0.8,0.8-1.3,1.5-1.3,1.5S53.1,100.4,53.8,99.5z
				 M54.5,92.6c-1.1-1.2-3-1.2-4.2-0.1l-6.5,6.1c-1.2,1.1-1.2,3-0.1,4.2c1.1,1.2,3,1.2,4.2,0.1l6.5-6.1
				C55.5,95.7,55.6,93.8,54.5,92.6z"/>
		</g>
	</g>
</g>
<g id="agreement_1_" class="st0">
	<g id="icon_5_" class="st1">
		<g>
			<path class="st2" d="M80.8,0h-64v128h94.3V33.7H80.8V0z M60.6,13.5l16.8,13.5h-6.7v13.5H64v-6.7h-6.7v6.7h-6.7V26.9h-6.7
				L60.6,13.5z M30.3,64h67.4v3.4H30.3V64z M30.3,74.1h67.4v3.4H30.3V74.1z M30.3,84.2h67.4v3.4H30.3V84.2z M60.6,97.7H30.3v-3.4
				h30.3V97.7z M94.7,120.7c1.8-2.6-3.2-14.1-3.2-14.1L88,121l-4.3-8.1l-6.3,11.7L81,103l7.2,12.1C85.3,106.7,88,96.6,95,103
				C102.1,109.3,94.7,120.7,94.7,120.7z M97.7,53.9v3.4H30.3v-3.4H97.7z M84.2,0v30.3h26.9L84.2,0z"/>
		</g>
	</g>
</g>
<g id="door_1_" class="st0">
	<g id="icon_6_" class="st1">
		<g>
			<path class="st2" d="M12.1,0v3.5h3.5V128H19V3.5H109V128h3.5V3.5h3.5V0H12.1z M22.5,128h83V6.9h-83V128z M67.5,20.7h24.2v13.9
				H67.5V20.7z M67.5,41.5h24.2v13.9H67.5V41.5z M67.5,62.3h24.2v13.8H67.5V62.3z M64,91.1h17.7c0,0,0.3,0.5,0.6-0.3
				c1-2.5,3.4-4.3,6.2-4.3c3.7,0,6.7,3.1,6.7,6.9c0,3.8-3,6.9-6.7,6.9c-2.7,0-5-1.7-6.1-4c-0.4-0.9-0.6-0.6-0.6-0.6H64V91.1z
				 M36.3,20.7h24.2v13.9H36.3V20.7z M36.3,41.5h24.2v13.9H36.3V41.5z M36.3,62.3h24.2v13.8H36.3V62.3z"/>
		</g>
	</g>
</g>
<g id="building_1_" class="st0">
	<g id="icon_7_" class="st1">
		<path class="st2" d="M88.6,11.5H75.5L0,47.6v62.4v6.6h74.5h14.3H128v-6.6V31.2L88.6,11.5z M88.6,18.1l32.8,16.4V41L88.6,27.9V18.1
			z M88.6,37.7l32.8,13.1V64l-32.8-9.8V37.7z M88.6,64l32.8,9.8v16.4l-32.8-9.8V64z M75.5,64v16.4L6.6,96.8V87L75.5,64z M6.6,77.1
			v-9.8l68.9-29.5v16.4L6.6,77.1z M75.5,18.1v9.8L6.6,57.4v-6.6L75.5,18.1z M74.9,109.9H6.6v-6.6l68.9-13.1v19.7H74.9z M88.8,109.9
			h-0.2V90.3l32.8,9.8v9.8H88.8z"/>
	</g>
</g>
<g id="Wash_x5F_basin_1_" class="st0">
	<g id="icon_8_" class="st1">
		<g>
			<path class="st2" d="M80.5,49.5v-8.3h-8.3c0-8.5,0-2.8,0-16.5c0-13.7-4-24.8-14.5-24.8c-5.1,0-9.6,4.5-12.1,11.3
				c-1.5,3.9,6.4,6.1,7.2,3.3c1.1-3.9,2.9-6.5,4.9-6.4c5.6,0.3,6.2,7.4,6.2,16.5s0,8.6,0,16.5h-8.3v8.3H10.3c0,0,0,3,0,6.2
				c0,12.7,17.7,22,34,27l7.3,16.4V128h28.9V99.1l8.3-16.5c16.1-5,33-14.3,33-26.8c0-2.7,0-6.2,0-6.2H80.5z M51.5,37.2h-8.3
				c-2.3,0-4.1,1.8-4.1,4.1s1.8,4.1,4.1,4.1h8.3c2.3,0,4.1-1.8,4.1-4.1S53.8,37.2,51.5,37.2z M84.6,45.4h8.3c2.3,0,4.1-1.8,4.1-4.1
				s-1.8-4.1-4.1-4.1h-8.3c-2.3,0-4.1,1.8-4.1,4.1S82.3,45.4,84.6,45.4z"/>
		</g>
	</g>
</g>
<g id="table_1_" class="st0">
	<g id="icon_9_" class="st1">
		<g>
			<path class="st2" d="M23.3,94.5h81.5V71.3H23.3V94.5z M64,77.1c3.2,0,5.8,2.6,5.8,5.8s-2.6,5.8-5.8,5.8s-5.8-2.6-5.8-5.8
				S60.8,77.1,64,77.1z M0,21.8v14.5h5.8v69.8h11.6V36.4h93.1v69.8h11.6V36.4h5.8V21.8H0z M23.3,65.5h81.5V42.2H23.3V65.5z M64,48
				c3.2,0,5.8,2.6,5.8,5.8c0,3.2-2.6,5.8-5.8,5.8s-5.8-2.6-5.8-5.8C58.2,50.6,60.8,48,64,48z"/>
		</g>
	</g>
</g>
<g id="bed_1_" class="st0">
	<g id="icon_10_" class="st1">
		<g>
			<path class="st2" d="M0,108.8h12.8l3.2-16h96l3.2,16H128V83.2H0V108.8z M19.2,51.2c0-3.5,2.9-6.4,6.4-6.4h25.6
				c3.5,0,6.4,2.9,6.4,6.4v6.4h12.8v-6.4c0-3.5,2.9-6.4,6.4-6.4h25.6c3.5,0,6.4,2.9,6.4,6.4v6.4h9.6V32c0,0-26.5-12.8-53.4-12.8
				C37.5,19.2,9.6,32,9.6,32v25.6h9.6V51.2z M121.6,60.8h-12.8H70.4H57.6H19.2H6.4c-3.5,0-6.4,2.9-6.4,6.4V80h128V67.2
				C128,63.7,125.1,60.8,121.6,60.8z"/>
		</g>
	</g>
</g>
<g id="search_x5F_home_1_" class="st0">
	<g id="icon_11_" class="st1">
		<g>
			<path class="st2" d="M72.5,89.4c-4.8-0.9-9.2-2.7-13.1-5.3v18.8h23.2V89.7C79.4,90.1,76,90,72.5,89.4z M55.5,29.2l-6.4-3.8
				L0,51.2V59h7.7v43.9H31v-31h17.2c-2.1-3.9-3.6-8.2-4.1-12.7C42.8,47.2,47.5,36.4,55.5,29.2z M58.8,31.1
				c-2.8,2.6-13.7,14.6-7.1,35.6c0.6,1.9,1.6,3.6,2.8,5.2h4.9v4.3c9.4,6.2,23.2,7.2,23.2,7.2V59H93v-7.7L58.8,31.1z"/>
		</g>
	</g>
	<g id="icon_12_" class="st1">
		<g>
			<path class="st2" d="M100.3,32.8c-12.1-12.1-31.7-12.1-43.8,0c-12.1,12.1-12.1,31.7,0,43.8c12.1,12.1,31.7,12.1,43.8,0
				C112.4,64.5,112.4,44.9,100.3,32.8z M61.9,71.1c-9.1-9.1-9.1-23.8,0-32.9c9.1-9.1,23.8-9.1,32.9,0c9.1,9.1,9.1,23.8,0,32.9
				C85.7,80.2,71,80.2,61.9,71.1z M112.3,81.3l-1.8,1.8l-8.4-8.4l-3.7,3.7l8.4,8.4l-1.8,1.8l15.7,15.7L128,97L112.3,81.3z"/>
		</g>
	</g>
</g>
<g id="Key_1_">
	<g id="icon_13_">
		<g>
			<path class="st2" d="M92.6,16.8c-19.5,0-35.4,15.8-35.4,35.4c0,1.3,0.2,4,0.2,4L6.7,87.6L0,104.5l16.8,6.7l3.4-13.5l13.5,6.7
				l3.4-13.5l13.5,6.7l3.4-13.5L64,87.6c0,0,4-2,9.6-5.6c5.5,3.5,12,5.6,19,5.6c19.5,0,35.4-15.8,35.4-35.4
				C128,32.7,112.2,16.8,92.6,16.8z M97.7,60.6c-5.6,0-10.1-4.5-10.1-10.1c0-5.6,4.5-10.1,10.1-10.1c5.6,0,10.1,4.5,10.1,10.1
				C107.8,56.1,103.3,60.6,97.7,60.6z"/>
		</g>
	</g>
</g>
<g id="table_x5F_chair_1_" class="st0">
	<g id="icon_14_" class="st1">
		<g>
			<path class="st2" d="M101.2,47.5H28.9v10.3h8.3v35.1h4.1V57.8h45.4v35.1h4.1V57.8h10.3V47.5z M6.2,35.1H0v57.8h6.2V80.5h19.4
				l1.3,12.4H31V72.3v-6.2H6.2V35.1z M24.7,72.3l0.6,6.2H6.2v-6.2H24.7z M121.8,35.1v31H97v6.2v20.6h4.1l1.3-12.4h19.4v12.4h6.2
				V35.1H121.8z M121.8,78.5h-19.2l0.6-6.2h18.5V78.5z"/>
		</g>
	</g>
</g>
<g id="Lamp_1_" class="st0">
	<path id="icon_42_" class="st3" d="M70.4,55.5v17.1c2.7,0,3.7,3.2,3.7,5.9v4.9c0,0,14.9,6.8,14.9,19.9S78.3,128,78.3,128h-28
		c0,0-10.4-11.6-10.7-24.8c0-13.5,14.9-19.9,14.9-19.9v-4.9c0-2.7,0.3-5.9,3-5.9V55.5H32v34.1c2.1,0.6,4.3,2,4.3,4.3
		c0,2.7-5.8,8.5-8.5,8.5c-2.7,0-8.5-5.8-8.5-8.5c0-2.3,2.2-3.7,4.3-4.3V55.5H10.7L44.8,0h38.4l34.1,55.5H70.4z"/>
</g>
<g id="Sofa_1_" class="st0">
	<g id="icon_16_" class="st1">
		<g>
			<path class="st2" d="M117.1,46.3c-7.3,0-10.9,8.2-10.9,8.2s-2.7,7.8-2.7,16.3c0,3.1,0.2,6.3,0.5,9.3c-8-2.4-24.3-6.6-38.6-6.6
				c-14.4,0-32.7,4.4-41.4,6.8c0.3-3.1,0.5-6.4,0.5-9.5c0-9.1-2.7-16.3-2.7-16.3s-3.6-8.2-10.9-8.2C4.6,46.3,0,48.5,0,57.2
				c0,8.7,16.3,38.1,16.3,38.1h2.7h2.7h13.6v8.2h10.9v-8.2h38.1v8.2h10.9v-8.2h10.9h2.7h2.7c0,0,16.3-29.4,16.3-38.1
				C128,48.5,123.4,46.3,117.1,46.3z M24.5,51.7c1.1,2.5,2.7,12.6,2.7,19.1c0,3.7,0,5,0,5.4c0,0,19.8-5.4,38.1-5.4
				c18.5,0,35.4,5.4,35.4,5.4c0-0.7,0-2.3,0-5.4c0-3.1,1.4-15.8,2.7-19.1c1.9-4.8,13.6-10.9,13.6-10.9c0-3-3-3.9-5.4-5.4
				c0,0-25.1-10.9-46.3-10.9c-21,0-46.3,10.9-46.3,10.9c-2.6,1.4-5.4,2.4-5.4,5.4C13.6,40.9,23.4,49.2,24.5,51.7z"/>
		</g>
	</g>
</g>
<g id="Sale_1_" class="st0">
	<g id="Base" class="st1">
		<path class="st2" d="M64.5,59.1h-0.1l-2.2,12.1h4.6L64.5,59.1z M64.5,59.1h-0.1l-2.2,12.1h4.6L64.5,59.1z M110.7,36.3v6.9H86.5
			v-6.9H55.4v6.9H31.1v-6.9H17.3v51.9c0,3.8,3.1,6.9,6.9,6.9h93.4c3.8,0,6.9-3.1,6.9-6.9V36.3H110.7z M42.9,81.8
			c-4.6,0-8.9-1.4-8.9-7.1V73h6.2v1c0,2,0.6,3.6,2.8,3.6c2.2,0,2.9-1.7,2.9-3.2c0-5.9-11.7-2.6-11.7-12.8c0-4.3,2.3-8,8.9-8
			c6.4,0,8.7,3.3,8.7,7.4v0.6h-6.2c0-1.3-0.1-2.2-0.5-2.8c-0.4-0.7-1-1-1.9-1c-1.6,0-2.6,1-2.6,2.9c0,5.7,11.7,2.8,11.7,12.4
			C52.2,79.4,48.8,81.8,42.9,81.8z M68.8,81.3l-1-5.2h-6.5l-0.9,5.2h-6.6l6.9-27.2h8l6.8,27.2H68.8z M92,81.3H76.4V54.1h6.4v22H92
			V81.3z M109.8,81.3H93.6V54.1h15.7v5.2H100v5.4h8.8v5.2H100v6.2h9.8V81.3z M64.4,59.1l-2.2,12.1h4.6l-2.3-12.1H64.4z M64.5,59.1
			h-0.1l-2.2,12.1h4.6L64.5,59.1z M64.5,59.1h-0.1l-2.2,12.1h4.6L64.5,59.1z M107.2,22.5V19H89.9v3.5H51.9V19H34.6v3.5H10.4v-1.7
			c0-2.9-2.3-5.2-5.2-5.2S0,17.9,0,20.8v91.7h10.4V32.9h24.2v6.9h17.3v-6.9h38.1v6.9h17.3v-6.9H128V22.5H107.2z"/>
	</g>
</g>
<g id="Rent_1_" class="st0">
	<g id="Base_1_" class="st1">
		<path class="st2" d="M38,58.6H36v7h2c2.6,0,3.3-1.9,3.3-3.6C41.3,60,40.5,58.6,38,58.6z M38,58.6H36v7h2c2.6,0,3.3-1.9,3.3-3.6
			C41.3,60,40.5,58.6,38,58.6z M38,58.6H36v7h2c2.6,0,3.3-1.9,3.3-3.6C41.3,60,40.5,58.6,38,58.6z M38,58.6H36v7h2
			c2.6,0,3.3-1.9,3.3-3.6C41.3,60,40.5,58.6,38,58.6z M110.7,36.3v6.9H86.5v-6.9H55.4v6.9H31.1v-6.9H17.3v51.9
			c0,3.8,3.1,6.9,6.9,6.9h93.4c3.8,0,6.9-3.1,6.9-6.9V36.3H110.7z M48.7,81.3h-6.9c-0.5-0.9-0.7-2.4-0.7-5.5c0-4.7-0.6-5.7-2.7-5.7
			H36v11.2h-6.4V54.1h10.7c5.5,0,7.3,3.4,7.3,7.1c0,4-1.6,5.9-4.6,6.6v0.1c4,0.6,4.3,3.1,4.4,6.8c0.1,5.4,0.3,5.9,1.2,6.3V81.3z
			 M66.6,81.3H50.4V54.1h15.7v5.2h-9.3v5.4h8.8v5.2h-8.8v6.2h9.8V81.3z M89.8,81.3h-7.2l-5.6-18.7h-0.1v18.7h-5.7V54.1h7.4l5.2,17.7
			h0.1V54.1h5.9V81.3z M111.4,59.3h-5.7v22h-6.4v-22h-5.7v-5.2h17.8V59.3z M38,58.6H36v7h2c2.6,0,3.3-1.9,3.3-3.6
			C41.3,60,40.5,58.6,38,58.6z M38,58.6H36v7h2c2.6,0,3.3-1.9,3.3-3.6C41.3,60,40.5,58.6,38,58.6z M38,58.6H36v7h2
			c2.6,0,3.3-1.9,3.3-3.6C41.3,60,40.5,58.6,38,58.6z M107.2,22.5V19H89.9v3.5H51.9V19H34.6v3.5H10.4v-1.7c0-2.9-2.3-5.2-5.2-5.2
			S0,17.9,0,20.8v91.7h10.4V32.9h24.2v6.9h17.3v-6.9h38.1v6.9h17.3v-6.9H128V22.5H107.2z"/>
	</g>
</g>
<g id="Fence_1_" class="st0">
	<g id="icon_19_" class="st1">
		<g>
			<path class="st2" d="M128,61.3V50.4h-8.2V39.5l-10.9-8.2L98,39.5v10.9h-8.2V39.5L79,31.3l-10.9,8.2v10.9h-8.2V39.5L49,31.3
				l-10.9,8.2v10.9H30V39.5l-10.9-8.2L8.2,39.5v10.9H0v10.9h8.2v13.6H0v10.9h8.2v10.9H30V85.8h8.2v10.9h21.8V85.8h8.2v10.9h21.8
				V85.8H98v10.9h21.8V85.8h8.2V74.9h-8.2V61.3H128z M13.6,83.1c-1.5,0-2.7-1.2-2.7-2.7s1.2-2.7,2.7-2.7s2.7,1.2,2.7,2.7
				S15.1,83.1,13.6,83.1z M13.6,58.6c-1.5,0-2.7-1.2-2.7-2.7c0-1.5,1.2-2.7,2.7-2.7s2.7,1.2,2.7,2.7C16.3,57.3,15.1,58.6,13.6,58.6z
				 M24.5,83.1c-1.5,0-2.7-1.2-2.7-2.7s1.2-2.7,2.7-2.7s2.7,1.2,2.7,2.7S26,83.1,24.5,83.1z M24.5,58.6c-1.5,0-2.7-1.2-2.7-2.7
				c0-1.5,1.2-2.7,2.7-2.7s2.7,1.2,2.7,2.7C27.2,57.3,26,58.6,24.5,58.6z M38.1,74.9H30V61.3h8.2V74.9z M43.6,83.1
				c-1.5,0-2.7-1.2-2.7-2.7s1.2-2.7,2.7-2.7s2.7,1.2,2.7,2.7S45.1,83.1,43.6,83.1z M43.6,58.6c-1.5,0-2.7-1.2-2.7-2.7
				c0-1.5,1.2-2.7,2.7-2.7s2.7,1.2,2.7,2.7C46.3,57.3,45.1,58.6,43.6,58.6z M54.5,83.1c-1.5,0-2.7-1.2-2.7-2.7s1.2-2.7,2.7-2.7
				s2.7,1.2,2.7,2.7S56,83.1,54.5,83.1z M54.5,58.6c-1.5,0-2.7-1.2-2.7-2.7c0-1.5,1.2-2.7,2.7-2.7s2.7,1.2,2.7,2.7
				C57.2,57.3,56,58.6,54.5,58.6z M68.1,74.9h-8.2V61.3h8.2V74.9z M73.5,83.1c-1.5,0-2.7-1.2-2.7-2.7s1.2-2.7,2.7-2.7
				c1.5,0,2.7,1.2,2.7,2.7S75,83.1,73.5,83.1z M73.5,58.6c-1.5,0-2.7-1.2-2.7-2.7c0-1.5,1.2-2.7,2.7-2.7c1.5,0,2.7,1.2,2.7,2.7
				C76.3,57.3,75,58.6,73.5,58.6z M84.4,83.1c-1.5,0-2.7-1.2-2.7-2.7s1.2-2.7,2.7-2.7c1.5,0,2.7,1.2,2.7,2.7S85.9,83.1,84.4,83.1z
				 M84.4,58.6c-1.5,0-2.7-1.2-2.7-2.7c0-1.5,1.2-2.7,2.7-2.7c1.5,0,2.7,1.2,2.7,2.7C87.1,57.3,85.9,58.6,84.4,58.6z M98,74.9h-8.2
				V61.3H98V74.9z M103.5,83.1c-1.5,0-2.7-1.2-2.7-2.7s1.2-2.7,2.7-2.7c1.5,0,2.7,1.2,2.7,2.7S105,83.1,103.5,83.1z M103.5,58.6
				c-1.5,0-2.7-1.2-2.7-2.7c0-1.5,1.2-2.7,2.7-2.7c1.5,0,2.7,1.2,2.7,2.7C106.2,57.3,105,58.6,103.5,58.6z M114.4,83.1
				c-1.5,0-2.7-1.2-2.7-2.7s1.2-2.7,2.7-2.7c1.5,0,2.7,1.2,2.7,2.7S115.9,83.1,114.4,83.1z M114.4,58.6c-1.5,0-2.7-1.2-2.7-2.7
				c0-1.5,1.2-2.7,2.7-2.7c1.5,0,2.7,1.2,2.7,2.7C117.1,57.3,115.9,58.6,114.4,58.6z"/>
		</g>
	</g>
</g>
<g id="House_1_" class="st0">
	<g id="icon_20_" class="st1">
		<g>
			<path class="st2" d="M86.1,52.4L44.2,26.8L0,52.4L0,57h86.1V52.4z M88.1,54.9l0.3,4.4h-9.3l48.9,14v-7L88.1,54.9z M9.3,101.2
				h23.3V87.3h20.9v13.9h23.3V59.4H9.3V101.2z M32.6,64h20.9V71h-9.3V64h-2.4V71h-9.3V64z M32.6,73.3h9.3v7h2.4v-7h9.3v7H32.6V73.3z
				 M79.1,101.2H128V75.6l-48.9-14V101.2z M97.7,98.9h-7v-7h7V98.9z M107.1,98.9h-7v-7h7V98.9z M116.4,98.9h-7v-7h7V98.9z
				 M125.7,98.9h-7v-7h7V98.9z M81.5,66.3L125.7,78v11.6H81.5V66.3z M81.5,91.9h7v7h-7V91.9z"/>
		</g>
	</g>
</g>
</svg>
